<svg xmlns="http://www.w3.org/2000/svg" viewBox="0 0 100 100" width="100%" height="100%">
  <defs>
    <linearGradient id="goldGradient" x1="0%" y1="0%" x2="100%" y2="100%">
      <stop offset="0%" stop-color="#F2D06B" />
      <stop offset="50%" stop-color="#D4AF37" />
      <stop offset="100%" stop-color="#AA8825" />
    </linearGradient>
  </defs>
  
  <g transform="translate(10, 10) scale(0.8)">
    <!-- Letter A -->
    <path d="M50 10 L20 90 L35 90 L42.5 70 L57.5 70 L65 90 L80 90 Z M46.25 60 L50 45 L53.75 60 Z" fill="url(#goldGradient)" />
    
    <!-- Letter B intertwined -->
    <path d="M50 25 L65 25 C75 25 80 30 80 40 C80 46 76 50 70 52 C78 54 83 60 83 70 C83 82 75 85 60 85 L40 85 L40 25 Z" fill="none" stroke="url(#goldGradient)" stroke-width="8" stroke-linejoin="round" />
    <path d="M40 52 L65 52" fill="none" stroke="url(#goldGradient)" stroke-width="8" />
  </g>
</svg>
